<svg width="62" height="74" viewBox="0 0 62 74" fill="none" xmlns="http://www.w3.org/2000/svg">
<path fill-rule="evenodd" clip-rule="evenodd" d="M42.7033 23.1717C43.46 23.9283 43.46 25.1551 42.7033 25.9117L32.37 36.245C31.6134 37.0017 30.3866 37.0017 29.63 36.245L19.2966 25.9117C18.54 25.1551 18.54 23.9283 19.2966 23.1717C20.0533 22.415 21.28 22.415 22.0367 23.1717L31 32.135L39.9633 23.1717C40.72 22.415 41.9467 22.415 42.7033 23.1717Z" fill="white"/>
<path fill-rule="evenodd" clip-rule="evenodd" d="M42.7033 35.1717C43.46 35.9283 43.46 37.1551 42.7033 37.9117L32.37 48.245C31.6134 49.0017 30.3866 49.0017 29.63 48.245L19.2966 37.9117C18.54 37.1551 18.54 35.9283 19.2966 35.1717C20.0533 34.415 21.28 34.415 22.0367 35.1717L31 44.135L39.9633 35.1717C40.72 34.415 41.9467 34.415 42.7033 35.1717Z" fill="white"/>
</svg>
