<svg width="21" height="24" viewBox="0 0 21 24" fill="none" xmlns="http://www.w3.org/2000/svg">
<path d="M16.7543 5.25H4.66825L3.6356 3.1346C3.51969 2.89715 3.30041 2.75 3.0625 2.75H1.75C1.38756 2.75 1.09375 3.08579 1.09375 3.5C1.09375 3.91421 1.38756 4.25 1.75 4.25H2.67715L3.69626 6.33765L6.04657 12.2809L6.04898 12.2869L6.25599 12.8104L3.89626 15.687C3.72659 15.8939 3.67347 16.1924 3.75899 16.4585C3.8445 16.7247 4.05403 16.913 4.3005 16.9452L6.45137 17.2261C9.14171 17.5775 11.8583 17.5775 14.5487 17.2261L16.6995 16.9452C17.0596 16.8981 17.3182 16.5264 17.277 16.1148C17.2359 15.7033 16.9106 15.4078 16.5505 15.4549L14.3996 15.7358C11.8083 16.0742 9.19171 16.0742 6.6004 15.7358L5.74682 15.6243L7.47877 13.513C7.49553 13.4925 7.51109 13.4713 7.52546 13.4494L8.18417 13.5474C9.10723 13.6847 10.0403 13.7116 10.9682 13.6277C13.1325 13.4321 15.1384 12.2551 16.5388 10.3591L17.0446 9.67425C17.0616 9.65125 17.0773 9.62711 17.0918 9.60194L18.0345 7.96009C18.7027 6.79633 17.9722 5.25 16.7543 5.25Z" fill="white"/>
<path d="M5.6875 18.5C4.96263 18.5 4.375 19.1716 4.375 20C4.375 20.8284 4.96263 21.5 5.6875 21.5C6.41237 21.5 7 20.8284 7 20C7 19.1716 6.41237 18.5 5.6875 18.5Z" fill="white"/>
<path d="M14 20C14 19.1716 14.5876 18.5 15.3125 18.5C16.0374 18.5 16.625 19.1716 16.625 20C16.625 20.8284 16.0374 21.5 15.3125 21.5C14.5876 21.5 14 20.8284 14 20Z" fill="white"/>
</svg>
