<?xml version="1.0" encoding="utf-8"?>
<!-- Generator: Adobe Illustrator 17.0.0, SVG Export Plug-In . SVG Version: 6.00 Build 0)  -->
<!DOCTYPE svg PUBLIC "-//W3C//DTD SVG 1.1//EN" "http://www.w3.org/Graphics/SVG/1.1/DTD/svg11.dtd">
<svg version="1.1" id="Livello_1" xmlns="http://www.w3.org/2000/svg" xmlns:xlink="http://www.w3.org/1999/xlink" x="0px" y="0px"
	 width="436.478px" height="230.588px" viewBox="0 0 436.478 230.588" enable-background="new 0 0 436.478 230.588"
	 xml:space="preserve">
<path fill="#FFFFFF" d="M115.251,89.278c0,41.347-16.34,62.02-49.004,62.02H26.814V32.428h40.199
	c17.48,0,29.889,4.882,37.228,14.645C111.579,56.834,115.251,70.904,115.251,89.278z M78.785,116.556
	c1.975-4.786,2.967-12.824,2.967-24.119c0-11.292-1.054-19.299-3.159-24.023c-2.104-4.719-6.605-7.082-13.497-7.082h-5.742v62.401
	h6.317C72.435,123.733,76.806,121.341,78.785,116.556z"/>
<path fill="#FFFFFF" d="M160.363,99.806v51.492H128.59V59.609h27.948l1.912,5.553h0.767c2.933-3.317,5.9-5.457,8.901-6.413
	c2.996-0.956,7.875-1.436,14.643-1.436l-1.342,30.625h-8.805c-4.975,0-8.263,0.767-9.855,2.298
	C161.159,91.768,160.363,94.958,160.363,99.806z"/>
<path fill="#FFFFFF" d="M272.42,66.31c7.017-5.996,14.739-8.997,23.165-8.997c8.421,0,14.322,1.946,17.706,5.838
	c3.379,3.894,5.071,9.732,5.071,17.514v70.633h-32.54V91.577c0-3.187-1.404-4.786-4.213-4.786c-3.571,0-6.571,0.894-8.997,2.679
	v61.828h-32.157V59.609h29.286l1.917,6.701H272.42z"/>
<path fill="#FFFFFF" d="M408.902,151.298h-35.416l-11.676-35.219h-0.762v35.219h-31.203V28.601h31.586v67.57h0.762l13.977-36.561
	h33.494l-19.33,45.75L408.902,151.298z"/>
<path fill="#FFFFFF" d="M224.619,123.457c-3.121,0.708-6.222,1.548-9.332,2.333c-3.502,0.883-7.004,1.767-10.719,2.705
	c0.299-0.818,0.516-1.42,0.738-2.018c7.492-20.218,14.986-40.435,22.475-60.656c0.828-2.235,0.684-4.112-0.387-5.589
	c-1.101-1.517-2.414-1.709-4.038-0.599c-7.952,5.432-15.901,10.874-23.864,16.278c-1.021,0.693-1.644,1.707-2.002,3.211
	c-3.998,16.775-8.024,33.536-12.04,50.302c-1.714,7.154-3.421,14.312-5.134,21.467c-0.389,1.627-0.234,3.173,0.641,4.51
	c0.873,1.333,1.962,1.731,3.183,1.336c0.881-0.285,1.773-0.52,2.66-0.778c3.61-1.05,7.219-2.101,11.067-3.221
	c-0.205,0.595-0.299,0.879-0.398,1.159c-5.095,14.378-10.19,28.757-15.284,43.135c-1.64,4.628-3.29,9.248-4.912,13.889
	c-0.629,1.801-0.329,3.718,0.719,5.061c0.998,1.28,2.411,1.654,3.497,0.718c0.571-0.492,1.05-1.248,1.456-2.007
	c9.565-17.913,19.114-35.843,28.667-53.769c5.366-10.07,10.743-20.127,16.08-30.228c0.428-0.811,0.785-1.884,0.818-2.886
	C228.604,124.933,226.824,122.956,224.619,123.457z"/>
<image overflow="visible" width="223" height="500" xlink:href="../Downloads/slim-aluminum-can-juice-tin-mockup-energy-drink-slim-aluminum-can-juice-tin-mockup-energy-drink-blank-isolated-white-vector-187939406-removebg-preview (1).png"  transform="matrix(0.7758 0 0 0.7758 4.9894 225.4817)">
</image>
</svg>
